<?xml version="1.0" encoding="UTF-8"?>
<svg width="1054px" height="1250px" viewBox="0 0 1054 1250" version="1.1" xmlns="http://www.w3.org/2000/svg" xmlns:xlink="http://www.w3.org/1999/xlink">
    <title>Group</title>
    <g id="Page-1" stroke="none" stroke-width="1" fill="none" fill-rule="evenodd">
        <g id="shutterstock_1465268354" transform="translate(-473.000000, -375.000000)">
            <g id="Group" transform="translate(473.469488, 375.868169)">
                <path d="M585.080512,132.320831 C570.770512,86.610831 540.850512,48.025831 500.274512,25.120831 C459.895512,1.92683101 408.855512,-5.58616899 356.957512,4.17083101 C305.077512,13.657831 252.336512,40.415831 208.974512,79.538831 C165.448512,118.409831 131.301512,169.644831 112.838512,222.279831 C112.838512,222.287831 112.838512,222.294831 112.844512,222.302831 C161.439512,188.644831 247.793512,141.542831 337.827512,123.358831 C427.867512,102.753831 521.589512,111.067831 585.070512,132.345831 C585.070512,132.337831 585.080512,132.329831 585.080512,132.320831" id="Fill-3" fill="#76AD45"></path>
                <path d="M112.718935,222.420831 C112.718935,222.427831 112.718935,222.412831 112.718935,222.420831 C186.706512,252.761831 270.649512,249.003831 349.694512,234.798831 C428.836512,219.156831 508.460512,191.209831 585.070512,132.345831 C585.070512,132.337831 585.070512,132.353831 585.070512,132.345831 C521.588512,111.067831 429.385512,101.102831 339.344512,121.706831 C249.310512,139.890831 161.314512,188.762831 112.718935,222.420831" id="Fill-4" fill="#5B8C2F"></path>
                <path d="M114.063512,222.751831 L112.838512,222.279831 C113.531512,221.791831 181.211512,166.427831 280.192512,133.567831 C338.333512,114.265831 395.105512,104.100831 448.932512,103.355831 C516.299512,102.422831 575.610512,114.546831 632.310512,142.894831 L617.820512,153.479831 C492.133512,90.647831 371.130512,118.778831 281.409512,148.506831 C183.936512,180.804831 114.744512,222.271831 114.063512,222.751831" id="Fill-5" fill="#9DC955"></path>
                <path d="M672.700512,151.264831 C591.430512,181.026831 542.620512,266.063831 559.840512,352.519831 C550.730512,354.334831 541.610512,356.150831 532.500512,357.965831 C512.443512,257.271831 563.160512,144.926831 657.590512,109.700831 C666.200512,106.488831 675.780512,110.996831 678.950512,119.622831 C680.170512,122.952831 681.470512,126.436831 682.710512,129.804831 C685.920512,138.501831 681.400512,148.076831 672.700512,151.264831" id="Fill-6" fill="#65543C"></path>
                <path d="M736.970512,278.444831 C671.580512,265.409831 606.090512,271.943831 544.910512,294.475831 C487.360512,263.156831 423.470512,247.922831 357.385512,253.173831 C139.598512,270.477831 -19.5384875,503.668831 1.94251247,774.021831 C23.4235125,1044.37183 217.387512,1249.50183 435.174512,1232.20183 C452.396512,1230.83183 469.250512,1228.11183 485.678512,1224.13183 C504.667512,1231.64183 524.468512,1237.52183 545.000512,1241.61183 C766.270512,1285.71183 988.620512,1105.85183 1041.63051,839.881831 C1094.64051,573.909831 958.240512,322.545831 736.970512,278.444831" id="Fill-7" fill="#742E46"></path>
                <path d="M544.160512,292.632831 C543.930512,292.565831 543.710512,292.496831 543.480512,292.429831 C405.052512,418.558831 320.073512,589.148831 320.073512,776.951831 C320.073512,947.241831 360.347512,1104.52183 476.588512,1226.19183 C479.755512,1225.88183 482.537512,1224.53183 485.678512,1224.13183 C394.538512,1097.29183 371.073512,943.091831 371.073512,776.951831 C371.073512,594.170831 435.749512,426.005831 544.160512,292.632831" id="Fill-8" fill="#5F1F3C"></path>
                <path d="M843.860512,545.712831 C843.860512,626.561831 790.600512,692.101831 724.910512,692.101831 C659.210512,692.101831 605.950512,626.561831 605.950512,545.712831 C605.950512,464.862831 659.210512,399.320831 724.910512,399.320831 C790.600512,399.320831 843.860512,464.862831 843.860512,545.712831" id="Fill-9" fill="#9A4C62"></path>
                <path d="M277.513512,482.579831 C256.231512,533.134831 215.906512,564.404831 187.446512,552.423831 C158.985512,540.442831 153.165512,489.747831 174.448512,439.192831 C195.730512,388.636831 236.055512,357.366831 264.515512,369.347831 C292.976512,381.329831 298.796512,432.025831 277.513512,482.579831" id="Fill-10" fill="#9A4C62"></path>
            </g>
        </g>
    </g>
</svg>